solid OpenSCAD_Model
  facet normal -1 0 0
    outer loop
      vertex 0 183 0
      vertex 0 179.5 10
      vertex 0 183 10
    endloop
  endfacet
  facet normal -1 0 0
    outer loop
      vertex 0 179.5 10
      vertex 0 170 10
      vertex 0 179.5 40
    endloop
  endfacet
  facet normal -1 0 0
    outer loop
      vertex 0 183 0
      vertex 0 170 10
      vertex 0 179.5 10
    endloop
  endfacet
  facet normal -1 0 0
    outer loop
      vertex 0 183 0
      vertex 0 169.5 10
      vertex 0 170 10
    endloop
  endfacet
  facet normal -1 0 0
    outer loop
      vertex 0 169.5 10
      vertex 0 160 10
      vertex 0 169.5 40
    endloop
  endfacet
  facet normal -1 0 0
    outer loop
      vertex 0 183 0
      vertex 0 160 10
      vertex 0 169.5 10
    endloop
  endfacet
  facet normal -1 0 0
    outer loop
      vertex 0 183 0
      vertex 0 159.5 10
      vertex 0 160 10
    endloop
  endfacet
  facet normal -1 0 0
    outer loop
      vertex 0 159.5 10
      vertex 0 150 10
      vertex 0 159.5 40
    endloop
  endfacet
  facet normal -1 0 0
    outer loop
      vertex 0 183 0
      vertex 0 150 10
      vertex 0 159.5 10
    endloop
  endfacet
  facet normal -1 0 0
    outer loop
      vertex 0 183 0
      vertex 0 149.5 10
      vertex 0 150 10
    endloop
  endfacet
  facet normal -1 0 0
    outer loop
      vertex 0 149.5 10
      vertex 0 140 10
      vertex 0 149.5 40
    endloop
  endfacet
  facet normal -1 0 0
    outer loop
      vertex 0 183 0
      vertex 0 140 10
      vertex 0 149.5 10
    endloop
  endfacet
  facet normal -1 0 0
    outer loop
      vertex 0 183 0
      vertex 0 139.5 10
      vertex 0 140 10
    endloop
  endfacet
  facet normal -1 0 0
    outer loop
      vertex 0 139.5 10
      vertex 0 130 10
      vertex 0 139.5 40
    endloop
  endfacet
  facet normal -1 0 0
    outer loop
      vertex 0 183 0
      vertex 0 130 10
      vertex 0 139.5 10
    endloop
  endfacet
  facet normal -1 0 0
    outer loop
      vertex 0 183 0
      vertex 0 129.5 10
      vertex 0 130 10
    endloop
  endfacet
  facet normal -1 0 0
    outer loop
      vertex 0 129.5 10
      vertex 0 120 10
      vertex 0 129.5 40
    endloop
  endfacet
  facet normal -1 0 0
    outer loop
      vertex 0 183 0
      vertex 0 120 10
      vertex 0 129.5 10
    endloop
  endfacet
  facet normal -1 0 0
    outer loop
      vertex 0 183 0
      vertex 0 119.5 10
      vertex 0 120 10
    endloop
  endfacet
  facet normal -1 0 0
    outer loop
      vertex 0 119.5 10
      vertex 0 110 10
      vertex 0 119.5 40
    endloop
  endfacet
  facet normal -1 0 0
    outer loop
      vertex 0 183 0
      vertex 0 110 10
      vertex 0 119.5 10
    endloop
  endfacet
  facet normal -1 0 0
    outer loop
      vertex 0 183 0
      vertex 0 109.5 10
      vertex 0 110 10
    endloop
  endfacet
  facet normal -1 0 0
    outer loop
      vertex 0 109.5 10
      vertex 0 100 10
      vertex 0 109.5 40
    endloop
  endfacet
  facet normal -1 0 0
    outer loop
      vertex 0 183 0
      vertex 0 100 10
      vertex 0 109.5 10
    endloop
  endfacet
  facet normal -1 0 0
    outer loop
      vertex 0 183 0
      vertex 0 99.5 10
      vertex 0 100 10
    endloop
  endfacet
  facet normal -1 0 0
    outer loop
      vertex 0 99.5 10
      vertex 0 90 10
      vertex 0 99.5 40
    endloop
  endfacet
  facet normal -1 0 0
    outer loop
      vertex 0 183 0
      vertex 0 90 10
      vertex 0 99.5 10
    endloop
  endfacet
  facet normal -1 0 0
    outer loop
      vertex 0 183 0
      vertex 0 89.5 10
      vertex 0 90 10
    endloop
  endfacet
  facet normal -1 0 0
    outer loop
      vertex 0 89.5 10
      vertex 0 80 10
      vertex 0 89.5 40
    endloop
  endfacet
  facet normal -1 0 0
    outer loop
      vertex 0 0 0
      vertex 0 89.5 10
      vertex 0 183 0
    endloop
  endfacet
  facet normal -1 -0 0
    outer loop
      vertex 0 89.5 10
      vertex 0 0 0
      vertex 0 80 10
    endloop
  endfacet
  facet normal -1 0 0
    outer loop
      vertex 0 79.5 10
      vertex 0 70 10
      vertex 0 79.5 40
    endloop
  endfacet
  facet normal -1 -0 0
    outer loop
      vertex 0 80 10
      vertex 0 0 0
      vertex 0 79.5 10
    endloop
  endfacet
  facet normal -1 -0 0
    outer loop
      vertex 0 79.5 10
      vertex 0 0 0
      vertex 0 70 10
    endloop
  endfacet
  facet normal -1 0 0
    outer loop
      vertex 0 69.5 10
      vertex 0 60 10
      vertex 0 69.5 40
    endloop
  endfacet
  facet normal -1 -0 0
    outer loop
      vertex 0 70 10
      vertex 0 0 0
      vertex 0 69.5 10
    endloop
  endfacet
  facet normal -1 -0 0
    outer loop
      vertex 0 69.5 10
      vertex 0 0 0
      vertex 0 60 10
    endloop
  endfacet
  facet normal -1 0 0
    outer loop
      vertex 0 59.5 10
      vertex 0 50 10
      vertex 0 59.5 40
    endloop
  endfacet
  facet normal -1 -0 0
    outer loop
      vertex 0 60 10
      vertex 0 0 0
      vertex 0 59.5 10
    endloop
  endfacet
  facet normal -1 -0 0
    outer loop
      vertex 0 59.5 10
      vertex 0 0 0
      vertex 0 50 10
    endloop
  endfacet
  facet normal -1 0 0
    outer loop
      vertex 0 49.5 10
      vertex 0 40 10
      vertex 0 49.5 40
    endloop
  endfacet
  facet normal -1 -0 0
    outer loop
      vertex 0 50 10
      vertex 0 0 0
      vertex 0 49.5 10
    endloop
  endfacet
  facet normal -1 -0 0
    outer loop
      vertex 0 49.5 10
      vertex 0 0 0
      vertex 0 40 10
    endloop
  endfacet
  facet normal -1 0 0
    outer loop
      vertex 0 39.5 10
      vertex 0 30 10
      vertex 0 39.5 40
    endloop
  endfacet
  facet normal -1 -0 0
    outer loop
      vertex 0 40 10
      vertex 0 0 0
      vertex 0 39.5 10
    endloop
  endfacet
  facet normal -1 -0 0
    outer loop
      vertex 0 39.5 10
      vertex 0 0 0
      vertex 0 30 10
    endloop
  endfacet
  facet normal -1 0 0
    outer loop
      vertex 0 29.5 10
      vertex 0 20 10
      vertex 0 29.5 40
    endloop
  endfacet
  facet normal -1 -0 0
    outer loop
      vertex 0 30 10
      vertex 0 0 0
      vertex 0 29.5 10
    endloop
  endfacet
  facet normal -1 -0 0
    outer loop
      vertex 0 29.5 10
      vertex 0 0 0
      vertex 0 20 10
    endloop
  endfacet
  facet normal -1 0 0
    outer loop
      vertex 0 19.5 10
      vertex 0 10 10
      vertex 0 19.5 40
    endloop
  endfacet
  facet normal -1 -0 0
    outer loop
      vertex 0 20 10
      vertex 0 0 0
      vertex 0 19.5 10
    endloop
  endfacet
  facet normal -1 -0 0
    outer loop
      vertex 0 19.5 10
      vertex 0 0 0
      vertex 0 10 10
    endloop
  endfacet
  facet normal -1 -0 0
    outer loop
      vertex 0 10 10
      vertex 0 0 0
      vertex 0 9.5 10
    endloop
  endfacet
  facet normal -1 0 0
    outer loop
      vertex 0 0 40
      vertex 0 9.5 10
      vertex 0 0 0
    endloop
  endfacet
  facet normal -1 0 0
    outer loop
      vertex 0 9.5 10
      vertex 0 0 40
      vertex 0 9.5 40
    endloop
  endfacet
  facet normal -1 -0 0
    outer loop
      vertex 0 179.5 40
      vertex 0 170 10
      vertex 0 170 40
    endloop
  endfacet
  facet normal -1 -0 0
    outer loop
      vertex 0 169.5 40
      vertex 0 160 10
      vertex 0 160 40
    endloop
  endfacet
  facet normal -1 -0 0
    outer loop
      vertex 0 159.5 40
      vertex 0 150 10
      vertex 0 150 40
    endloop
  endfacet
  facet normal -1 -0 0
    outer loop
      vertex 0 149.5 40
      vertex 0 140 10
      vertex 0 140 40
    endloop
  endfacet
  facet normal -1 -0 0
    outer loop
      vertex 0 139.5 40
      vertex 0 130 10
      vertex 0 130 40
    endloop
  endfacet
  facet normal -1 -0 0
    outer loop
      vertex 0 129.5 40
      vertex 0 120 10
      vertex 0 120 40
    endloop
  endfacet
  facet normal -1 -0 0
    outer loop
      vertex 0 119.5 40
      vertex 0 110 10
      vertex 0 110 40
    endloop
  endfacet
  facet normal -1 -0 0
    outer loop
      vertex 0 109.5 40
      vertex 0 100 10
      vertex 0 100 40
    endloop
  endfacet
  facet normal -1 -0 0
    outer loop
      vertex 0 99.5 40
      vertex 0 90 10
      vertex 0 90 40
    endloop
  endfacet
  facet normal -1 -0 0
    outer loop
      vertex 0 89.5 40
      vertex 0 80 10
      vertex 0 80 40
    endloop
  endfacet
  facet normal -1 -0 0
    outer loop
      vertex 0 79.5 40
      vertex 0 70 10
      vertex 0 70 40
    endloop
  endfacet
  facet normal -1 -0 0
    outer loop
      vertex 0 69.5 40
      vertex 0 60 10
      vertex 0 60 40
    endloop
  endfacet
  facet normal -1 -0 0
    outer loop
      vertex 0 59.5 40
      vertex 0 50 10
      vertex 0 50 40
    endloop
  endfacet
  facet normal -1 -0 0
    outer loop
      vertex 0 49.5 40
      vertex 0 40 10
      vertex 0 40 40
    endloop
  endfacet
  facet normal -1 -0 0
    outer loop
      vertex 0 39.5 40
      vertex 0 30 10
      vertex 0 30 40
    endloop
  endfacet
  facet normal -1 -0 0
    outer loop
      vertex 0 29.5 40
      vertex 0 20 10
      vertex 0 20 40
    endloop
  endfacet
  facet normal -1 -0 0
    outer loop
      vertex 0 19.5 40
      vertex 0 10 10
      vertex 0 10 40
    endloop
  endfacet
  facet normal -0 0 1
    outer loop
      vertex 0 170 10
      vertex 148 169.5 10
      vertex 148 170 10
    endloop
  endfacet
  facet normal 0 0 1
    outer loop
      vertex 148 169.5 10
      vertex 0 170 10
      vertex 0 169.5 10
    endloop
  endfacet
  facet normal -0 0 1
    outer loop
      vertex 0 183 10
      vertex 148 179.5 10
      vertex 148 183 10
    endloop
  endfacet
  facet normal 0 0 1
    outer loop
      vertex 148 179.5 10
      vertex 0 183 10
      vertex 0 179.5 10
    endloop
  endfacet
  facet normal -0 0 1
    outer loop
      vertex 0 160 10
      vertex 148 159.5 10
      vertex 148 160 10
    endloop
  endfacet
  facet normal 0 0 1
    outer loop
      vertex 148 159.5 10
      vertex 0 160 10
      vertex 0 159.5 10
    endloop
  endfacet
  facet normal -0 0 1
    outer loop
      vertex 0 150 10
      vertex 148 149.5 10
      vertex 148 150 10
    endloop
  endfacet
  facet normal 0 0 1
    outer loop
      vertex 148 149.5 10
      vertex 0 150 10
      vertex 0 149.5 10
    endloop
  endfacet
  facet normal -0 0 1
    outer loop
      vertex 0 140 10
      vertex 148 139.5 10
      vertex 148 140 10
    endloop
  endfacet
  facet normal 0 0 1
    outer loop
      vertex 148 139.5 10
      vertex 0 140 10
      vertex 0 139.5 10
    endloop
  endfacet
  facet normal -0 0 1
    outer loop
      vertex 0 130 10
      vertex 148 129.5 10
      vertex 148 130 10
    endloop
  endfacet
  facet normal 0 0 1
    outer loop
      vertex 148 129.5 10
      vertex 0 130 10
      vertex 0 129.5 10
    endloop
  endfacet
  facet normal -0 0 1
    outer loop
      vertex 0 120 10
      vertex 148 119.5 10
      vertex 148 120 10
    endloop
  endfacet
  facet normal 0 0 1
    outer loop
      vertex 148 119.5 10
      vertex 0 120 10
      vertex 0 119.5 10
    endloop
  endfacet
  facet normal -0 0 1
    outer loop
      vertex 0 110 10
      vertex 148 109.5 10
      vertex 148 110 10
    endloop
  endfacet
  facet normal 0 0 1
    outer loop
      vertex 148 109.5 10
      vertex 0 110 10
      vertex 0 109.5 10
    endloop
  endfacet
  facet normal -0 0 1
    outer loop
      vertex 0 100 10
      vertex 148 99.5 10
      vertex 148 100 10
    endloop
  endfacet
  facet normal 0 0 1
    outer loop
      vertex 148 99.5 10
      vertex 0 100 10
      vertex 0 99.5 10
    endloop
  endfacet
  facet normal -0 0 1
    outer loop
      vertex 0 90 10
      vertex 148 89.5 10
      vertex 148 90 10
    endloop
  endfacet
  facet normal 0 0 1
    outer loop
      vertex 148 89.5 10
      vertex 0 90 10
      vertex 0 89.5 10
    endloop
  endfacet
  facet normal -0 0 1
    outer loop
      vertex 0 80 10
      vertex 148 79.5 10
      vertex 148 80 10
    endloop
  endfacet
  facet normal 0 0 1
    outer loop
      vertex 148 79.5 10
      vertex 0 80 10
      vertex 0 79.5 10
    endloop
  endfacet
  facet normal -0 0 1
    outer loop
      vertex 0 70 10
      vertex 148 69.5 10
      vertex 148 70 10
    endloop
  endfacet
  facet normal 0 0 1
    outer loop
      vertex 148 69.5 10
      vertex 0 70 10
      vertex 0 69.5 10
    endloop
  endfacet
  facet normal -0 0 1
    outer loop
      vertex 0 60 10
      vertex 148 59.5 10
      vertex 148 60 10
    endloop
  endfacet
  facet normal 0 0 1
    outer loop
      vertex 148 59.5 10
      vertex 0 60 10
      vertex 0 59.5 10
    endloop
  endfacet
  facet normal -0 0 1
    outer loop
      vertex 0 50 10
      vertex 148 49.5 10
      vertex 148 50 10
    endloop
  endfacet
  facet normal 0 0 1
    outer loop
      vertex 148 49.5 10
      vertex 0 50 10
      vertex 0 49.5 10
    endloop
  endfacet
  facet normal -0 0 1
    outer loop
      vertex 0 40 10
      vertex 148 39.5 10
      vertex 148 40 10
    endloop
  endfacet
  facet normal 0 0 1
    outer loop
      vertex 148 39.5 10
      vertex 0 40 10
      vertex 0 39.5 10
    endloop
  endfacet
  facet normal -0 0 1
    outer loop
      vertex 0 30 10
      vertex 148 29.5 10
      vertex 148 30 10
    endloop
  endfacet
  facet normal 0 0 1
    outer loop
      vertex 148 29.5 10
      vertex 0 30 10
      vertex 0 29.5 10
    endloop
  endfacet
  facet normal -0 0 1
    outer loop
      vertex 0 20 10
      vertex 148 19.5 10
      vertex 148 20 10
    endloop
  endfacet
  facet normal 0 0 1
    outer loop
      vertex 148 19.5 10
      vertex 0 20 10
      vertex 0 19.5 10
    endloop
  endfacet
  facet normal -0 0 1
    outer loop
      vertex 0 10 10
      vertex 148 9.5 10
      vertex 148 10 10
    endloop
  endfacet
  facet normal 0 0 1
    outer loop
      vertex 148 9.5 10
      vertex 0 10 10
      vertex 0 9.5 10
    endloop
  endfacet
  facet normal 1 0 0
    outer loop
      vertex 148 9.5 40
      vertex 148 0 40
      vertex 148 9.5 10
    endloop
  endfacet
  facet normal 1 0 0
    outer loop
      vertex 148 19.5 40
      vertex 148 10 40
      vertex 148 19.5 10
    endloop
  endfacet
  facet normal 1 0 0
    outer loop
      vertex 148 29.5 40
      vertex 148 20 40
      vertex 148 29.5 10
    endloop
  endfacet
  facet normal 1 0 0
    outer loop
      vertex 148 39.5 40
      vertex 148 30 40
      vertex 148 39.5 10
    endloop
  endfacet
  facet normal 1 0 0
    outer loop
      vertex 148 49.5 40
      vertex 148 40 40
      vertex 148 49.5 10
    endloop
  endfacet
  facet normal 1 0 0
    outer loop
      vertex 148 59.5 40
      vertex 148 50 40
      vertex 148 59.5 10
    endloop
  endfacet
  facet normal 1 0 0
    outer loop
      vertex 148 69.5 40
      vertex 148 60 40
      vertex 148 69.5 10
    endloop
  endfacet
  facet normal 1 0 0
    outer loop
      vertex 148 79.5 40
      vertex 148 70 40
      vertex 148 79.5 10
    endloop
  endfacet
  facet normal 1 0 0
    outer loop
      vertex 148 89.5 40
      vertex 148 80 40
      vertex 148 89.5 10
    endloop
  endfacet
  facet normal 1 0 0
    outer loop
      vertex 148 99.5 40
      vertex 148 90 40
      vertex 148 99.5 10
    endloop
  endfacet
  facet normal 1 0 0
    outer loop
      vertex 148 109.5 40
      vertex 148 100 40
      vertex 148 109.5 10
    endloop
  endfacet
  facet normal 1 0 0
    outer loop
      vertex 148 119.5 40
      vertex 148 110 40
      vertex 148 119.5 10
    endloop
  endfacet
  facet normal 1 0 0
    outer loop
      vertex 148 129.5 40
      vertex 148 120 40
      vertex 148 129.5 10
    endloop
  endfacet
  facet normal 1 0 0
    outer loop
      vertex 148 139.5 40
      vertex 148 130 40
      vertex 148 139.5 10
    endloop
  endfacet
  facet normal 1 0 0
    outer loop
      vertex 148 149.5 40
      vertex 148 140 40
      vertex 148 149.5 10
    endloop
  endfacet
  facet normal 1 0 0
    outer loop
      vertex 148 159.5 40
      vertex 148 150 40
      vertex 148 159.5 10
    endloop
  endfacet
  facet normal 1 0 0
    outer loop
      vertex 148 169.5 40
      vertex 148 160 40
      vertex 148 169.5 10
    endloop
  endfacet
  facet normal 1 0 0
    outer loop
      vertex 148 179.5 40
      vertex 148 170 40
      vertex 148 179.5 10
    endloop
  endfacet
  facet normal 1 -0 0
    outer loop
      vertex 148 179.5 10
      vertex 148 183 0
      vertex 148 183 10
    endloop
  endfacet
  facet normal 1 0 0
    outer loop
      vertex 148 170 10
      vertex 148 179.5 10
      vertex 148 170 40
    endloop
  endfacet
  facet normal 1 -0 0
    outer loop
      vertex 148 170 10
      vertex 148 183 0
      vertex 148 179.5 10
    endloop
  endfacet
  facet normal 1 -0 0
    outer loop
      vertex 148 169.5 10
      vertex 148 183 0
      vertex 148 170 10
    endloop
  endfacet
  facet normal 1 0 0
    outer loop
      vertex 148 160 10
      vertex 148 169.5 10
      vertex 148 160 40
    endloop
  endfacet
  facet normal 1 -0 0
    outer loop
      vertex 148 160 10
      vertex 148 183 0
      vertex 148 169.5 10
    endloop
  endfacet
  facet normal 1 -0 0
    outer loop
      vertex 148 159.5 10
      vertex 148 183 0
      vertex 148 160 10
    endloop
  endfacet
  facet normal 1 0 0
    outer loop
      vertex 148 150 10
      vertex 148 159.5 10
      vertex 148 150 40
    endloop
  endfacet
  facet normal 1 -0 0
    outer loop
      vertex 148 150 10
      vertex 148 183 0
      vertex 148 159.5 10
    endloop
  endfacet
  facet normal 1 -0 0
    outer loop
      vertex 148 149.5 10
      vertex 148 183 0
      vertex 148 150 10
    endloop
  endfacet
  facet normal 1 0 0
    outer loop
      vertex 148 140 10
      vertex 148 149.5 10
      vertex 148 140 40
    endloop
  endfacet
  facet normal 1 -0 0
    outer loop
      vertex 148 140 10
      vertex 148 183 0
      vertex 148 149.5 10
    endloop
  endfacet
  facet normal 1 -0 0
    outer loop
      vertex 148 139.5 10
      vertex 148 183 0
      vertex 148 140 10
    endloop
  endfacet
  facet normal 1 0 0
    outer loop
      vertex 148 130 10
      vertex 148 139.5 10
      vertex 148 130 40
    endloop
  endfacet
  facet normal 1 -0 0
    outer loop
      vertex 148 130 10
      vertex 148 183 0
      vertex 148 139.5 10
    endloop
  endfacet
  facet normal 1 -0 0
    outer loop
      vertex 148 129.5 10
      vertex 148 183 0
      vertex 148 130 10
    endloop
  endfacet
  facet normal 1 0 0
    outer loop
      vertex 148 120 10
      vertex 148 129.5 10
      vertex 148 120 40
    endloop
  endfacet
  facet normal 1 -0 0
    outer loop
      vertex 148 120 10
      vertex 148 183 0
      vertex 148 129.5 10
    endloop
  endfacet
  facet normal 1 -0 0
    outer loop
      vertex 148 119.5 10
      vertex 148 183 0
      vertex 148 120 10
    endloop
  endfacet
  facet normal 1 0 0
    outer loop
      vertex 148 110 10
      vertex 148 119.5 10
      vertex 148 110 40
    endloop
  endfacet
  facet normal 1 -0 0
    outer loop
      vertex 148 110 10
      vertex 148 183 0
      vertex 148 119.5 10
    endloop
  endfacet
  facet normal 1 -0 0
    outer loop
      vertex 148 109.5 10
      vertex 148 183 0
      vertex 148 110 10
    endloop
  endfacet
  facet normal 1 0 0
    outer loop
      vertex 148 100 10
      vertex 148 109.5 10
      vertex 148 100 40
    endloop
  endfacet
  facet normal 1 -0 0
    outer loop
      vertex 148 100 10
      vertex 148 183 0
      vertex 148 109.5 10
    endloop
  endfacet
  facet normal 1 -0 0
    outer loop
      vertex 148 99.5 10
      vertex 148 183 0
      vertex 148 100 10
    endloop
  endfacet
  facet normal 1 0 0
    outer loop
      vertex 148 90 10
      vertex 148 99.5 10
      vertex 148 90 40
    endloop
  endfacet
  facet normal 1 -0 0
    outer loop
      vertex 148 90 10
      vertex 148 183 0
      vertex 148 99.5 10
    endloop
  endfacet
  facet normal 1 -0 0
    outer loop
      vertex 148 89.5 10
      vertex 148 183 0
      vertex 148 90 10
    endloop
  endfacet
  facet normal 1 0 0
    outer loop
      vertex 148 80 10
      vertex 148 89.5 10
      vertex 148 80 40
    endloop
  endfacet
  facet normal 1 0 0
    outer loop
      vertex 148 0 0
      vertex 148 89.5 10
      vertex 148 80 10
    endloop
  endfacet
  facet normal 1 0 0
    outer loop
      vertex 148 0 0
      vertex 148 80 10
      vertex 148 79.5 10
    endloop
  endfacet
  facet normal 1 0 0
    outer loop
      vertex 148 70 10
      vertex 148 79.5 10
      vertex 148 70 40
    endloop
  endfacet
  facet normal 1 0 0
    outer loop
      vertex 148 0 0
      vertex 148 79.5 10
      vertex 148 70 10
    endloop
  endfacet
  facet normal 1 0 0
    outer loop
      vertex 148 0 0
      vertex 148 70 10
      vertex 148 69.5 10
    endloop
  endfacet
  facet normal 1 0 0
    outer loop
      vertex 148 60 10
      vertex 148 69.5 10
      vertex 148 60 40
    endloop
  endfacet
  facet normal 1 0 0
    outer loop
      vertex 148 0 0
      vertex 148 69.5 10
      vertex 148 60 10
    endloop
  endfacet
  facet normal 1 0 0
    outer loop
      vertex 148 0 0
      vertex 148 60 10
      vertex 148 59.5 10
    endloop
  endfacet
  facet normal 1 0 0
    outer loop
      vertex 148 50 10
      vertex 148 59.5 10
      vertex 148 50 40
    endloop
  endfacet
  facet normal 1 0 0
    outer loop
      vertex 148 0 0
      vertex 148 59.5 10
      vertex 148 50 10
    endloop
  endfacet
  facet normal 1 0 0
    outer loop
      vertex 148 0 0
      vertex 148 50 10
      vertex 148 49.5 10
    endloop
  endfacet
  facet normal 1 0 0
    outer loop
      vertex 148 40 10
      vertex 148 49.5 10
      vertex 148 40 40
    endloop
  endfacet
  facet normal 1 0 0
    outer loop
      vertex 148 0 0
      vertex 148 49.5 10
      vertex 148 40 10
    endloop
  endfacet
  facet normal 1 0 0
    outer loop
      vertex 148 0 0
      vertex 148 40 10
      vertex 148 39.5 10
    endloop
  endfacet
  facet normal 1 0 0
    outer loop
      vertex 148 30 10
      vertex 148 39.5 10
      vertex 148 30 40
    endloop
  endfacet
  facet normal 1 0 0
    outer loop
      vertex 148 0 0
      vertex 148 39.5 10
      vertex 148 30 10
    endloop
  endfacet
  facet normal 1 0 0
    outer loop
      vertex 148 0 0
      vertex 148 30 10
      vertex 148 29.5 10
    endloop
  endfacet
  facet normal 1 0 0
    outer loop
      vertex 148 20 10
      vertex 148 29.5 10
      vertex 148 20 40
    endloop
  endfacet
  facet normal 1 0 0
    outer loop
      vertex 148 0 0
      vertex 148 29.5 10
      vertex 148 20 10
    endloop
  endfacet
  facet normal 1 0 0
    outer loop
      vertex 148 0 0
      vertex 148 20 10
      vertex 148 19.5 10
    endloop
  endfacet
  facet normal 1 0 0
    outer loop
      vertex 148 10 10
      vertex 148 19.5 10
      vertex 148 10 40
    endloop
  endfacet
  facet normal 1 0 0
    outer loop
      vertex 148 0 0
      vertex 148 19.5 10
      vertex 148 10 10
    endloop
  endfacet
  facet normal 1 0 0
    outer loop
      vertex 148 0 0
      vertex 148 10 10
      vertex 148 9.5 10
    endloop
  endfacet
  facet normal 1 0 0
    outer loop
      vertex 148 89.5 10
      vertex 148 0 0
      vertex 148 183 0
    endloop
  endfacet
  facet normal 1 0 0
    outer loop
      vertex 148 0 0
      vertex 148 9.5 10
      vertex 148 0 40
    endloop
  endfacet
  facet normal 0 1 -0
    outer loop
      vertex 148 183 0
      vertex 0 183 10
      vertex 148 183 10
    endloop
  endfacet
  facet normal 0 1 0
    outer loop
      vertex 0 183 10
      vertex 148 183 0
      vertex 0 183 0
    endloop
  endfacet
  facet normal 0 0 -1
    outer loop
      vertex 0 0 0
      vertex 148 183 0
      vertex 148 0 0
    endloop
  endfacet
  facet normal -0 0 -1
    outer loop
      vertex 148 183 0
      vertex 0 0 0
      vertex 0 183 0
    endloop
  endfacet
  facet normal 0 -1 0
    outer loop
      vertex 0 0 0
      vertex 148 0 40
      vertex 0 0 40
    endloop
  endfacet
  facet normal 0 -1 -0
    outer loop
      vertex 148 0 40
      vertex 0 0 0
      vertex 148 0 0
    endloop
  endfacet
  facet normal -0 0 1
    outer loop
      vertex 0 9.5 40
      vertex 148 0 40
      vertex 148 9.5 40
    endloop
  endfacet
  facet normal 0 0 1
    outer loop
      vertex 148 0 40
      vertex 0 9.5 40
      vertex 0 0 40
    endloop
  endfacet
  facet normal 0 1 -0
    outer loop
      vertex 148 9.5 10
      vertex 0 9.5 40
      vertex 148 9.5 40
    endloop
  endfacet
  facet normal 0 1 0
    outer loop
      vertex 0 9.5 40
      vertex 148 9.5 10
      vertex 0 9.5 10
    endloop
  endfacet
  facet normal -0 0 1
    outer loop
      vertex 0 19.5 40
      vertex 148 10 40
      vertex 148 19.5 40
    endloop
  endfacet
  facet normal 0 0 1
    outer loop
      vertex 148 10 40
      vertex 0 19.5 40
      vertex 0 10 40
    endloop
  endfacet
  facet normal 0 -1 0
    outer loop
      vertex 0 10 10
      vertex 148 10 40
      vertex 0 10 40
    endloop
  endfacet
  facet normal 0 -1 -0
    outer loop
      vertex 148 10 40
      vertex 0 10 10
      vertex 148 10 10
    endloop
  endfacet
  facet normal 0 1 -0
    outer loop
      vertex 148 19.5 10
      vertex 0 19.5 40
      vertex 148 19.5 40
    endloop
  endfacet
  facet normal 0 1 0
    outer loop
      vertex 0 19.5 40
      vertex 148 19.5 10
      vertex 0 19.5 10
    endloop
  endfacet
  facet normal -0 0 1
    outer loop
      vertex 0 29.5 40
      vertex 148 20 40
      vertex 148 29.5 40
    endloop
  endfacet
  facet normal 0 0 1
    outer loop
      vertex 148 20 40
      vertex 0 29.5 40
      vertex 0 20 40
    endloop
  endfacet
  facet normal 0 -1 0
    outer loop
      vertex 0 20 10
      vertex 148 20 40
      vertex 0 20 40
    endloop
  endfacet
  facet normal 0 -1 -0
    outer loop
      vertex 148 20 40
      vertex 0 20 10
      vertex 148 20 10
    endloop
  endfacet
  facet normal 0 1 -0
    outer loop
      vertex 148 29.5 10
      vertex 0 29.5 40
      vertex 148 29.5 40
    endloop
  endfacet
  facet normal 0 1 0
    outer loop
      vertex 0 29.5 40
      vertex 148 29.5 10
      vertex 0 29.5 10
    endloop
  endfacet
  facet normal -0 0 1
    outer loop
      vertex 0 39.5 40
      vertex 148 30 40
      vertex 148 39.5 40
    endloop
  endfacet
  facet normal 0 0 1
    outer loop
      vertex 148 30 40
      vertex 0 39.5 40
      vertex 0 30 40
    endloop
  endfacet
  facet normal 0 -1 0
    outer loop
      vertex 0 30 10
      vertex 148 30 40
      vertex 0 30 40
    endloop
  endfacet
  facet normal 0 -1 -0
    outer loop
      vertex 148 30 40
      vertex 0 30 10
      vertex 148 30 10
    endloop
  endfacet
  facet normal 0 1 -0
    outer loop
      vertex 148 39.5 10
      vertex 0 39.5 40
      vertex 148 39.5 40
    endloop
  endfacet
  facet normal 0 1 0
    outer loop
      vertex 0 39.5 40
      vertex 148 39.5 10
      vertex 0 39.5 10
    endloop
  endfacet
  facet normal -0 0 1
    outer loop
      vertex 0 49.5 40
      vertex 148 40 40
      vertex 148 49.5 40
    endloop
  endfacet
  facet normal 0 0 1
    outer loop
      vertex 148 40 40
      vertex 0 49.5 40
      vertex 0 40 40
    endloop
  endfacet
  facet normal 0 1 -0
    outer loop
      vertex 148 49.5 10
      vertex 0 49.5 40
      vertex 148 49.5 40
    endloop
  endfacet
  facet normal 0 1 0
    outer loop
      vertex 0 49.5 40
      vertex 148 49.5 10
      vertex 0 49.5 10
    endloop
  endfacet
  facet normal 0 -1 0
    outer loop
      vertex 0 40 10
      vertex 148 40 40
      vertex 0 40 40
    endloop
  endfacet
  facet normal 0 -1 -0
    outer loop
      vertex 148 40 40
      vertex 0 40 10
      vertex 148 40 10
    endloop
  endfacet
  facet normal -0 0 1
    outer loop
      vertex 0 59.5 40
      vertex 148 50 40
      vertex 148 59.5 40
    endloop
  endfacet
  facet normal 0 0 1
    outer loop
      vertex 148 50 40
      vertex 0 59.5 40
      vertex 0 50 40
    endloop
  endfacet
  facet normal 0 1 -0
    outer loop
      vertex 148 59.5 10
      vertex 0 59.5 40
      vertex 148 59.5 40
    endloop
  endfacet
  facet normal 0 1 0
    outer loop
      vertex 0 59.5 40
      vertex 148 59.5 10
      vertex 0 59.5 10
    endloop
  endfacet
  facet normal 0 -1 0
    outer loop
      vertex 0 50 10
      vertex 148 50 40
      vertex 0 50 40
    endloop
  endfacet
  facet normal 0 -1 -0
    outer loop
      vertex 148 50 40
      vertex 0 50 10
      vertex 148 50 10
    endloop
  endfacet
  facet normal -0 0 1
    outer loop
      vertex 0 69.5 40
      vertex 148 60 40
      vertex 148 69.5 40
    endloop
  endfacet
  facet normal 0 0 1
    outer loop
      vertex 148 60 40
      vertex 0 69.5 40
      vertex 0 60 40
    endloop
  endfacet
  facet normal 0 1 -0
    outer loop
      vertex 148 69.5 10
      vertex 0 69.5 40
      vertex 148 69.5 40
    endloop
  endfacet
  facet normal 0 1 0
    outer loop
      vertex 0 69.5 40
      vertex 148 69.5 10
      vertex 0 69.5 10
    endloop
  endfacet
  facet normal 0 -1 0
    outer loop
      vertex 0 60 10
      vertex 148 60 40
      vertex 0 60 40
    endloop
  endfacet
  facet normal 0 -1 -0
    outer loop
      vertex 148 60 40
      vertex 0 60 10
      vertex 148 60 10
    endloop
  endfacet
  facet normal -0 0 1
    outer loop
      vertex 0 79.5 40
      vertex 148 70 40
      vertex 148 79.5 40
    endloop
  endfacet
  facet normal 0 0 1
    outer loop
      vertex 148 70 40
      vertex 0 79.5 40
      vertex 0 70 40
    endloop
  endfacet
  facet normal 0 1 -0
    outer loop
      vertex 148 79.5 10
      vertex 0 79.5 40
      vertex 148 79.5 40
    endloop
  endfacet
  facet normal 0 1 0
    outer loop
      vertex 0 79.5 40
      vertex 148 79.5 10
      vertex 0 79.5 10
    endloop
  endfacet
  facet normal 0 -1 0
    outer loop
      vertex 0 70 10
      vertex 148 70 40
      vertex 0 70 40
    endloop
  endfacet
  facet normal 0 -1 -0
    outer loop
      vertex 148 70 40
      vertex 0 70 10
      vertex 148 70 10
    endloop
  endfacet
  facet normal -0 0 1
    outer loop
      vertex 0 89.5 40
      vertex 148 80 40
      vertex 148 89.5 40
    endloop
  endfacet
  facet normal 0 0 1
    outer loop
      vertex 148 80 40
      vertex 0 89.5 40
      vertex 0 80 40
    endloop
  endfacet
  facet normal 0 -1 0
    outer loop
      vertex 0 80 10
      vertex 148 80 40
      vertex 0 80 40
    endloop
  endfacet
  facet normal 0 -1 -0
    outer loop
      vertex 148 80 40
      vertex 0 80 10
      vertex 148 80 10
    endloop
  endfacet
  facet normal 0 1 -0
    outer loop
      vertex 148 89.5 10
      vertex 0 89.5 40
      vertex 148 89.5 40
    endloop
  endfacet
  facet normal 0 1 0
    outer loop
      vertex 0 89.5 40
      vertex 148 89.5 10
      vertex 0 89.5 10
    endloop
  endfacet
  facet normal -0 0 1
    outer loop
      vertex 0 99.5 40
      vertex 148 90 40
      vertex 148 99.5 40
    endloop
  endfacet
  facet normal 0 0 1
    outer loop
      vertex 148 90 40
      vertex 0 99.5 40
      vertex 0 90 40
    endloop
  endfacet
  facet normal 0 1 -0
    outer loop
      vertex 148 99.5 10
      vertex 0 99.5 40
      vertex 148 99.5 40
    endloop
  endfacet
  facet normal 0 1 0
    outer loop
      vertex 0 99.5 40
      vertex 148 99.5 10
      vertex 0 99.5 10
    endloop
  endfacet
  facet normal 0 -1 0
    outer loop
      vertex 0 90 10
      vertex 148 90 40
      vertex 0 90 40
    endloop
  endfacet
  facet normal 0 -1 -0
    outer loop
      vertex 148 90 40
      vertex 0 90 10
      vertex 148 90 10
    endloop
  endfacet
  facet normal -0 0 1
    outer loop
      vertex 0 109.5 40
      vertex 148 100 40
      vertex 148 109.5 40
    endloop
  endfacet
  facet normal 0 0 1
    outer loop
      vertex 148 100 40
      vertex 0 109.5 40
      vertex 0 100 40
    endloop
  endfacet
  facet normal 0 -1 0
    outer loop
      vertex 0 100 10
      vertex 148 100 40
      vertex 0 100 40
    endloop
  endfacet
  facet normal 0 -1 -0
    outer loop
      vertex 148 100 40
      vertex 0 100 10
      vertex 148 100 10
    endloop
  endfacet
  facet normal 0 1 -0
    outer loop
      vertex 148 109.5 10
      vertex 0 109.5 40
      vertex 148 109.5 40
    endloop
  endfacet
  facet normal 0 1 0
    outer loop
      vertex 0 109.5 40
      vertex 148 109.5 10
      vertex 0 109.5 10
    endloop
  endfacet
  facet normal -0 0 1
    outer loop
      vertex 0 119.5 40
      vertex 148 110 40
      vertex 148 119.5 40
    endloop
  endfacet
  facet normal 0 0 1
    outer loop
      vertex 148 110 40
      vertex 0 119.5 40
      vertex 0 110 40
    endloop
  endfacet
  facet normal 0 1 -0
    outer loop
      vertex 148 119.5 10
      vertex 0 119.5 40
      vertex 148 119.5 40
    endloop
  endfacet
  facet normal 0 1 0
    outer loop
      vertex 0 119.5 40
      vertex 148 119.5 10
      vertex 0 119.5 10
    endloop
  endfacet
  facet normal 0 -1 0
    outer loop
      vertex 0 110 10
      vertex 148 110 40
      vertex 0 110 40
    endloop
  endfacet
  facet normal 0 -1 -0
    outer loop
      vertex 148 110 40
      vertex 0 110 10
      vertex 148 110 10
    endloop
  endfacet
  facet normal -0 0 1
    outer loop
      vertex 0 129.5 40
      vertex 148 120 40
      vertex 148 129.5 40
    endloop
  endfacet
  facet normal 0 0 1
    outer loop
      vertex 148 120 40
      vertex 0 129.5 40
      vertex 0 120 40
    endloop
  endfacet
  facet normal 0 -1 0
    outer loop
      vertex 0 120 10
      vertex 148 120 40
      vertex 0 120 40
    endloop
  endfacet
  facet normal 0 -1 -0
    outer loop
      vertex 148 120 40
      vertex 0 120 10
      vertex 148 120 10
    endloop
  endfacet
  facet normal 0 1 -0
    outer loop
      vertex 148 129.5 10
      vertex 0 129.5 40
      vertex 148 129.5 40
    endloop
  endfacet
  facet normal 0 1 0
    outer loop
      vertex 0 129.5 40
      vertex 148 129.5 10
      vertex 0 129.5 10
    endloop
  endfacet
  facet normal -0 0 1
    outer loop
      vertex 0 139.5 40
      vertex 148 130 40
      vertex 148 139.5 40
    endloop
  endfacet
  facet normal 0 0 1
    outer loop
      vertex 148 130 40
      vertex 0 139.5 40
      vertex 0 130 40
    endloop
  endfacet
  facet normal 0 1 -0
    outer loop
      vertex 148 139.5 10
      vertex 0 139.5 40
      vertex 148 139.5 40
    endloop
  endfacet
  facet normal 0 1 0
    outer loop
      vertex 0 139.5 40
      vertex 148 139.5 10
      vertex 0 139.5 10
    endloop
  endfacet
  facet normal 0 -1 0
    outer loop
      vertex 0 130 10
      vertex 148 130 40
      vertex 0 130 40
    endloop
  endfacet
  facet normal 0 -1 -0
    outer loop
      vertex 148 130 40
      vertex 0 130 10
      vertex 148 130 10
    endloop
  endfacet
  facet normal -0 0 1
    outer loop
      vertex 0 149.5 40
      vertex 148 140 40
      vertex 148 149.5 40
    endloop
  endfacet
  facet normal 0 0 1
    outer loop
      vertex 148 140 40
      vertex 0 149.5 40
      vertex 0 140 40
    endloop
  endfacet
  facet normal 0 1 -0
    outer loop
      vertex 148 149.5 10
      vertex 0 149.5 40
      vertex 148 149.5 40
    endloop
  endfacet
  facet normal 0 1 0
    outer loop
      vertex 0 149.5 40
      vertex 148 149.5 10
      vertex 0 149.5 10
    endloop
  endfacet
  facet normal 0 -1 0
    outer loop
      vertex 0 140 10
      vertex 148 140 40
      vertex 0 140 40
    endloop
  endfacet
  facet normal 0 -1 -0
    outer loop
      vertex 148 140 40
      vertex 0 140 10
      vertex 148 140 10
    endloop
  endfacet
  facet normal -0 0 1
    outer loop
      vertex 0 159.5 40
      vertex 148 150 40
      vertex 148 159.5 40
    endloop
  endfacet
  facet normal 0 0 1
    outer loop
      vertex 148 150 40
      vertex 0 159.5 40
      vertex 0 150 40
    endloop
  endfacet
  facet normal 0 -1 0
    outer loop
      vertex 0 150 10
      vertex 148 150 40
      vertex 0 150 40
    endloop
  endfacet
  facet normal 0 -1 -0
    outer loop
      vertex 148 150 40
      vertex 0 150 10
      vertex 148 150 10
    endloop
  endfacet
  facet normal 0 1 -0
    outer loop
      vertex 148 159.5 10
      vertex 0 159.5 40
      vertex 148 159.5 40
    endloop
  endfacet
  facet normal 0 1 0
    outer loop
      vertex 0 159.5 40
      vertex 148 159.5 10
      vertex 0 159.5 10
    endloop
  endfacet
  facet normal -0 0 1
    outer loop
      vertex 0 169.5 40
      vertex 148 160 40
      vertex 148 169.5 40
    endloop
  endfacet
  facet normal 0 0 1
    outer loop
      vertex 148 160 40
      vertex 0 169.5 40
      vertex 0 160 40
    endloop
  endfacet
  facet normal 0 1 -0
    outer loop
      vertex 148 169.5 10
      vertex 0 169.5 40
      vertex 148 169.5 40
    endloop
  endfacet
  facet normal 0 1 0
    outer loop
      vertex 0 169.5 40
      vertex 148 169.5 10
      vertex 0 169.5 10
    endloop
  endfacet
  facet normal 0 -1 0
    outer loop
      vertex 0 160 10
      vertex 148 160 40
      vertex 0 160 40
    endloop
  endfacet
  facet normal 0 -1 -0
    outer loop
      vertex 148 160 40
      vertex 0 160 10
      vertex 148 160 10
    endloop
  endfacet
  facet normal -0 0 1
    outer loop
      vertex 0 179.5 40
      vertex 148 170 40
      vertex 148 179.5 40
    endloop
  endfacet
  facet normal 0 0 1
    outer loop
      vertex 148 170 40
      vertex 0 179.5 40
      vertex 0 170 40
    endloop
  endfacet
  facet normal 0 1 -0
    outer loop
      vertex 148 179.5 10
      vertex 0 179.5 40
      vertex 148 179.5 40
    endloop
  endfacet
  facet normal 0 1 0
    outer loop
      vertex 0 179.5 40
      vertex 148 179.5 10
      vertex 0 179.5 10
    endloop
  endfacet
  facet normal 0 -1 0
    outer loop
      vertex 0 170 10
      vertex 148 170 40
      vertex 0 170 40
    endloop
  endfacet
  facet normal 0 -1 -0
    outer loop
      vertex 148 170 40
      vertex 0 170 10
      vertex 148 170 10
    endloop
  endfacet
endsolid OpenSCAD_Model
